<?xml version="1.0" standalone="no"?>
<!DOCTYPE svg PUBLIC "-//W3C//DTD SVG 20010904//EN"
 "http://www.w3.org/TR/2001/REC-SVG-20010904/DTD/svg10.dtd">
<svg version="1.0" xmlns="http://www.w3.org/2000/svg"
 width="500.000000pt" height="500.000000pt" viewBox="0 0 500.000000 500.000000"
 preserveAspectRatio="xMidYMid meet">

<g transform="translate(0.000000,500.000000) scale(0.100000,-0.100000)"
fill="#000000" stroke="none">
<path d="M2415 3806 c-22 -8 -231 -108 -465 -223 -386 -191 -429 -215 -472
-260 -79 -85 -90 -203 -29 -290 36 -50 37 -56 14 -74 -68 -57 -68 -241 0 -298
10 -7 17 -19 17 -26 0 -7 -7 -19 -17 -26 -57 -48 -70 -182 -25 -264 37 -67 89
-101 192 -125 337 -79 985 -210 1004 -203 60 22 904 478 924 499 28 31 28 54
1 83 -16 17 -29 21 -48 18 -14 -3 -225 -112 -468 -242 l-441 -235 -508 110
c-547 119 -542 117 -564 186 -20 59 33 134 95 134 8 0 233 -47 500 -105 353
-77 490 -103 507 -96 62 24 915 484 931 502 9 12 17 30 17 40 0 25 -35 59 -61
59 -12 0 -223 -108 -469 -240 l-448 -240 -489 105 c-268 58 -501 111 -517 117
-32 13 -66 62 -66 96 0 53 56 112 105 112 9 0 235 -47 502 -105 l486 -105 461
246 c253 135 469 252 478 261 38 34 10 103 -42 103 -12 0 -224 -107 -470 -239
l-448 -239 -479 104 c-263 57 -495 108 -516 114 -113 33 -93 210 23 210 11 0
167 -32 347 -71 528 -113 556 -119 578 -119 11 0 234 112 495 249 494 258 515
272 460 301 -11 6 -222 51 -467 100 -466 94 -544 103 -628 76z m370 -247 l180
-36 -86 -42 c-48 -22 -94 -41 -104 -41 -15 0 -326 62 -384 77 -23 6 -17 11 64
49 68 32 97 41 120 36 17 -3 111 -22 210 -43z"/>
<path d="M1861 1794 c-37 -47 -28 -86 35 -155 37 -41 54 -67 52 -81 -5 -34
-28 -33 -41 1 -9 26 -17 31 -37 29 -36 -4 -40 -49 -6 -83 19 -19 35 -25 69
-25 58 0 87 29 87 89 0 38 -6 49 -56 101 -35 37 -54 65 -52 77 5 26 32 22 36
-4 4 -24 12 -27 49 -17 19 5 22 11 17 33 -11 45 -33 61 -85 61 -39 0 -51 -4
-68 -26z"/>
<path d="M2920 1650 l0 -170 35 0 35 0 0 170 0 170 -35 0 -35 0 0 -170z"/>
<path d="M2550 1784 c0 -23 3 -25 33 -22 24 2 33 8 35 26 3 19 -1 22 -32 22
-32 0 -36 -3 -36 -26z"/>
<path d="M2130 1718 c-38 -21 -51 -55 -48 -130 4 -84 23 -108 82 -108 23 0 52
7 64 16 20 14 22 24 22 103 0 72 -3 91 -18 104 -26 23 -72 30 -102 15z m58
-109 c2 -66 -7 -97 -27 -85 -12 8 -16 138 -4 150 17 17 28 -6 31 -65z"/>
<path d="M2370 1723 c-43 -16 -50 -34 -50 -120 0 -101 15 -123 83 -123 52 0
77 22 77 68 0 29 -3 32 -29 32 -24 0 -30 -5 -34 -30 -12 -59 -27 -31 -27 51 0
60 3 80 13 77 6 -3 13 -14 15 -26 3 -17 10 -22 33 -22 25 0 29 4 29 28 0 16
-8 36 -18 45 -20 19 -69 29 -92 20z"/>
<path d="M2733 1720 c-23 -10 -43 -39 -43 -64 0 -26 56 -21 63 5 7 25 27 16
27 -11 0 -11 -14 -25 -37 -37 -21 -10 -45 -30 -53 -45 -13 -25 -13 -31 0 -55
19 -35 67 -44 87 -17 12 16 13 16 13 1 0 -12 8 -17 30 -17 l30 0 0 99 c0 79
-3 103 -17 120 -21 24 -68 35 -100 21z m43 -187 c-5 -12 -9 -13 -21 -3 -14 12
-11 33 9 59 9 12 12 9 14 -13 2 -15 1 -35 -2 -43z"/>
<path d="M2550 1600 l0 -120 35 0 35 0 0 120 0 120 -35 0 -35 0 0 -120z"/>
<path d="M2170 1266 l0 -86 33 0 c18 0 38 5 45 12 14 14 16 64 2 73 -6 4 -5
13 3 25 18 29 -2 54 -47 58 l-36 3 0 -85z m65 39 c0 -11 -8 -21 -17 -23 -14
-3 -18 3 -18 23 0 20 4 26 18 23 9 -2 17 -12 17 -23z m0 -75 c0 -16 -6 -26
-17 -28 -14 -3 -18 3 -18 28 0 25 4 31 18 28 11 -2 17 -12 17 -28z"/>
<path d="M2352 1338 c-7 -7 -12 -39 -12 -73 0 -65 11 -85 45 -85 34 0 45 20
45 85 0 65 -11 85 -45 85 -12 0 -26 -5 -33 -12z m56 -71 c2 -46 0 -59 -14 -64
-21 -8 -34 13 -34 59 0 49 9 70 29 66 12 -2 17 -17 19 -61z"/>
<path d="M2520 1331 c-5 -11 -10 -41 -10 -66 0 -62 13 -85 51 -85 33 0 49 27
49 85 0 58 -16 85 -49 85 -20 0 -34 -7 -41 -19z m60 -66 c0 -58 -2 -65 -20
-65 -18 0 -20 7 -20 65 0 58 2 65 20 65 18 0 20 -7 20 -65z"/>
<path d="M2690 1265 c0 -50 4 -85 10 -85 6 0 10 16 10 35 0 19 4 35 9 35 5 0
15 -16 22 -35 7 -19 19 -35 25 -35 9 0 7 14 -7 49 -19 45 -20 51 -5 79 19 36
19 42 6 42 -5 0 -18 -17 -29 -37 l-20 -38 -1 38 c0 20 -4 37 -10 37 -6 0 -10
-35 -10 -85z"/>
</g>
</svg>
